<?xml version="1.0" standalone="no"?>
<!DOCTYPE svg PUBLIC "-//W3C//DTD SVG 20010904//EN"
 "http://www.w3.org/TR/2001/REC-SVG-20010904/DTD/svg10.dtd">
<svg version="1.0" xmlns="http://www.w3.org/2000/svg"
 width="150.000000pt" height="40.000000pt" viewBox="0 0 150.000000 40.000000"
 preserveAspectRatio="xMidYMid meet">

<g transform="translate(0.000000,40.000000) scale(0.100000,-0.100000)"
fill="#000000" stroke="none">
<path d="M30 219 l0 -131 31 6 c17 3 35 6 40 6 5 0 9 14 9 30 0 25 -4 30 -24
30 -31 0 -36 15 -36 111 0 46 -4 79 -10 79 -6 0 -10 -50 -10 -131z"/>
<path d="M400 256 c0 -9 12 -16 28 -18 24 -3 27 -7 27 -38 0 -25 -5 -36 -17
-38 -11 -2 -18 3 -18 12 0 8 -4 18 -10 21 -6 4 -10 -8 -10 -29 0 -34 2 -36 34
-36 22 0 36 6 40 16 10 27 7 99 -6 112 -17 17 -68 15 -68 -2z"/>
<path d="M1431 240 c-12 -37 -19 -38 -31 -5 -19 49 -30 26 -30 -60 0 -50 4
-85 10 -85 6 0 10 17 10 38 1 32 2 35 13 20 12 -15 14 -15 24 0 10 14 12 11
12 -20 1 -20 6 -40 11 -43 6 -4 10 28 10 89 0 98 -10 120 -29 66z"/>
<path d="M920 195 c0 -63 11 -84 25 -47 6 16 7 16 16 0 16 -29 24 -21 25 27 1
45 -9 59 -20 30 -10 -27 -26 -15 -26 20 0 19 -4 35 -10 35 -6 0 -10 -28 -10
-65z"/>
<path d="M130 225 c-14 -36 -13 -88 3 -109 9 -13 20 -16 40 -11 26 7 27 10 27
71 0 49 -3 64 -14 64 -8 0 -21 3 -30 6 -11 4 -19 -2 -26 -21z m50 -50 c0 -16
-6 -25 -15 -25 -9 0 -15 9 -15 25 0 16 6 25 15 25 9 0 15 -9 15 -25z"/>
<path d="M580 189 l0 -60 33 3 c29 3 32 6 32 38 0 29 -4 36 -22 38 -15 2 -23
10 -23 23 0 10 -4 19 -10 19 -6 0 -10 -27 -10 -61z m50 -14 c0 -8 -7 -15 -15
-15 -8 0 -15 7 -15 15 0 8 7 15 15 15 8 0 15 -7 15 -15z"/>
<path d="M1290 224 c-21 -53 -4 -124 29 -124 23 0 31 19 31 75 0 24 -3 50 -6
59 -10 25 -43 19 -54 -10z m40 -44 c0 -16 -4 -30 -9 -30 -13 0 -21 27 -15 45
10 25 24 17 24 -15z"/>
<path d="M220 226 c0 -9 7 -16 15 -16 19 0 19 -11 0 -36 -8 -10 -15 -29 -15
-41 0 -20 5 -23 35 -23 37 0 49 22 19 34 -15 6 -15 8 0 31 21 33 20 55 -3 55
-11 0 -26 3 -35 6 -11 4 -16 1 -16 -10z"/>
<path d="M1210 221 c-11 -22 -13 -71 -4 -95 4 -10 18 -16 35 -16 22 0 29 5 29
20 0 13 -7 20 -19 20 -20 0 -31 17 -24 38 3 6 13 12 24 12 12 0 19 7 19 20 0
27 -45 27 -60 1z"/>
<path d="M314 183 c3 -26 11 -52 16 -57 15 -15 12 -46 -5 -46 -8 0 -15 -7 -15
-15 0 -24 39 -18 49 7 14 39 24 148 13 148 -6 0 -14 -17 -19 -37 l-10 -38 -7
43 c-11 59 -31 55 -22 -5z"/>
<path d="M1100 176 c0 -66 17 -75 23 -13 3 35 5 38 11 20 12 -34 28 -28 24 10
-2 27 -8 33 -30 35 -28 3 -28 2 -28 -52z"/>
<path d="M507 209 c-35 -20 -16 -83 24 -77 19 2 25 10 27 35 4 37 -22 58 -51
42z m33 -33 c0 -8 -4 -17 -9 -21 -12 -7 -24 12 -16 25 9 15 25 12 25 -4z"/>
<path d="M1014 206 c-3 -8 -4 -29 -2 -48 3 -29 7 -33 36 -36 24 -2 32 1 32 12
0 9 -9 16 -20 16 -11 0 -20 5 -20 10 0 6 9 10 20 10 15 0 20 7 20 25 0 21 -5
25 -30 25 -17 0 -33 -6 -36 -14z m46 -6 c0 -5 -7 -10 -16 -10 -8 0 -12 5 -9
10 3 6 10 10 16 10 5 0 9 -4 9 -10z"/>
<path d="M673 194 c-4 -11 1 -22 12 -30 17 -13 17 -14 2 -14 -9 0 -17 -4 -17
-10 0 -15 46 -12 58 3 12 14 4 31 -18 40 -10 3 -7 6 8 6 31 1 18 21 -14 21
-14 0 -27 -7 -31 -16z"/>
<path d="M757 203 c-13 -13 -7 -61 9 -67 24 -9 54 -7 54 4 0 6 -9 10 -20 10
-11 0 -20 5 -20 10 0 6 9 10 20 10 13 0 20 7 20 20 0 15 -7 20 -28 20 -16 0
-32 -3 -35 -7z m43 -13 c0 -5 -4 -10 -10 -10 -5 0 -10 5 -10 10 0 6 5 10 10
10 6 0 10 -4 10 -10z"/>
<path d="M842 173 c3 -35 6 -38 36 -41 18 -2 32 1 32 7 0 6 -9 11 -19 11 -11
0 -23 5 -26 10 -4 6 5 10 20 10 41 0 29 34 -13 38 -33 3 -33 3 -30 -35z m48
17 c0 -5 -7 -10 -15 -10 -8 0 -15 5 -15 10 0 6 7 10 15 10 8 0 15 -4 15 -10z"/>
<path d="M1181 124 c0 -11 3 -14 6 -6 3 7 2 16 -1 19 -3 4 -6 -2 -5 -13z"/>
</g>
</svg>
